<svg width="32" height="33" viewBox="0 0 32 33" fill="none" xmlns="http://www.w3.org/2000/svg">
<g clip-path="url(#clip0_312_444)">
<path d="M32.0001 16.8656C32.0001 15.5128 31.8912 14.5257 31.6555 13.502H16.3267V19.6077H25.3243C25.143 21.1251 24.1634 23.4102 21.9865 24.9457L21.956 25.1501L26.8027 28.9339L27.1384 28.9676C30.2223 26.0975 32.0001 21.8746 32.0001 16.8656Z" fill="#4285F4"/>
<path d="M16.3263 32.9527C20.7344 32.9527 24.435 31.4902 27.1381 28.9675L21.9861 24.9456C20.6075 25.9145 18.7571 26.5909 16.3263 26.5909C12.0089 26.5909 8.34448 23.7209 7.03823 19.7539L6.84677 19.7703L1.80712 23.7007L1.74121 23.8853C4.42599 29.2599 9.94074 32.9527 16.3263 32.9527Z" fill="#34A853"/>
<path d="M7.03848 19.7538C6.69382 18.7301 6.49435 17.6331 6.49435 16.4998C6.49435 15.3663 6.69382 14.2695 7.02035 13.2458L7.01122 13.0277L1.90841 9.03418L1.74146 9.11421C0.634928 11.3445 0 13.8491 0 16.4998C0 19.1505 0.634928 21.6549 1.74146 23.8852L7.03848 19.7538Z" fill="#FBBC05"/>
<path d="M16.3263 6.40909C19.392 6.40909 21.46 7.74359 22.6392 8.85881L27.2469 4.32511C24.417 1.67438 20.7344 0.0473633 16.3263 0.0473633C9.94074 0.0473633 4.42599 3.74009 1.74121 9.11464L7.0201 13.2462C8.34448 9.27924 12.0089 6.40909 16.3263 6.40909Z" fill="#EB4335"/>
</g>
<defs>
<clipPath id="clip0_312_444">
<rect width="32" height="33" fill="white"/>
</clipPath>
</defs>
</svg>
